<svg width="48" height="48" viewBox="0 0 48 48" fill="none" xmlns="http://www.w3.org/2000/svg">
<path d="M48.1507 4.87305L40.9482 24.3363H37.3051L30.0762 4.87305H33.4431L39.1272 21.0591L44.84 4.87305H48.1519H48.1507ZM64.7172 16.2432C64.7172 16.8219 64.6805 17.3445 64.606 17.8112H52.9891C53.0808 19.0432 53.5312 20.0325 54.3414 20.7791C55.1504 21.5258 56.144 21.8991 57.321 21.8991C59.0136 21.8991 60.2089 21.1805 60.9079 19.7432H64.3035C63.8428 21.1618 63.0062 22.3285 61.7915 23.2431C60.5962 24.1403 59.1064 24.5883 57.3221 24.5883C55.8678 24.5883 54.5614 24.2616 53.4028 23.6083C52.2681 22.9425 51.3331 21.9745 50.6983 20.8083C50.0542 19.595 49.7322 18.195 49.7322 16.6072C49.7322 15.0206 50.0451 13.6288 50.6719 12.4341C51.3148 11.2208 52.2075 10.2875 53.3478 9.63414C54.5064 8.98082 55.8312 8.65416 57.321 8.65416C58.7569 8.65416 60.0347 8.97149 61.1577 9.60614C62.2666 10.2275 63.1765 11.1606 63.7786 12.2941C64.4043 13.4339 64.7172 14.7499 64.7172 16.2432ZM61.4328 15.2352C61.4144 14.0592 61.0007 13.1154 60.1917 12.4061C59.3814 11.6968 58.3787 11.3421 57.1834 11.3421C56.0982 11.3421 55.1688 11.6968 54.3964 12.4061C53.624 13.0968 53.1633 14.0394 53.0166 15.2352H61.4328ZM75.4838 8.65299C76.6802 8.65299 77.7471 8.90616 78.6857 9.41015C79.6365 9.90872 80.4159 10.69 80.9203 11.6501C81.4544 12.6394 81.7202 13.8352 81.7202 15.2352V24.3351H78.6032V15.7112C78.6032 14.3299 78.2628 13.2753 77.5821 12.5461C76.9002 11.7994 75.972 11.4261 74.7939 11.4261C73.6169 11.4261 72.6784 11.7994 71.9793 12.5461C71.2986 13.2741 70.9594 14.3299 70.9594 15.7112V24.3363H67.8125V8.90615H70.9582V10.6701C71.4872 10.0249 72.1588 9.5164 72.9179 9.18615C73.7286 8.83115 74.6024 8.65005 75.4849 8.65416L75.4838 8.65299ZM92.3287 24.5883C90.8939 24.5883 89.5966 24.2616 88.438 23.6083C87.2914 22.9489 86.346 21.98 85.706 20.8083C85.0436 19.595 84.7124 18.195 84.7124 16.6072C84.7124 15.0392 85.0528 13.6474 85.7335 12.4341C86.3838 11.2513 87.3502 10.2805 88.5206 9.63414C89.6975 8.98082 91.0131 8.65416 92.4673 8.65416C93.9205 8.65416 95.2361 8.98082 96.413 9.63414C97.5833 10.2805 98.5497 11.2513 99.2 12.4341C99.8808 13.6474 100.22 15.0392 100.22 16.6072C100.22 18.1752 99.8716 19.5658 99.1725 20.7791C98.4921 21.9747 97.4986 22.9542 96.303 23.6083C95.1066 24.2616 93.7818 24.5883 92.3287 24.5883ZM92.3287 21.8151C93.1378 21.8151 93.893 21.6191 94.592 21.2271C95.3094 20.8351 95.8881 20.2472 96.3305 19.4632C96.7717 18.6792 96.9929 17.7272 96.9929 16.6072C96.9929 15.4872 96.7809 14.5446 96.358 13.7781C95.934 12.9941 95.3724 12.4061 94.6734 12.0141C93.9813 11.624 93.2023 11.4215 92.4112 11.4261C91.6021 11.4261 90.8481 11.6221 90.149 12.0141C89.4683 12.4061 88.9251 12.9941 88.5217 13.7781C88.116 14.5446 87.9143 15.4872 87.9143 16.6072C87.9143 18.2685 88.3269 19.5565 89.1554 20.4712C90.0012 21.3671 91.0589 21.8151 92.3298 21.8151H92.3287ZM121.737 8.65299C122.932 8.65299 123.999 8.90616 124.938 9.41015C125.889 9.90865 126.669 10.6899 127.174 11.6501C127.725 12.6394 128.001 13.8352 128.001 15.2352V24.3351H124.883V15.7112C124.883 14.3299 124.542 13.2753 123.862 12.5461C123.181 11.7994 122.252 11.4261 121.075 11.4261C119.898 11.4261 118.959 11.7994 118.26 12.5461C117.579 13.2741 117.239 14.3299 117.239 15.7112V24.3363H114.121V15.7112C114.121 14.3299 113.78 13.2753 113.1 12.5461C112.419 11.7994 111.49 11.4261 110.313 11.4261C109.135 11.4261 108.197 11.7994 107.498 12.5461C106.817 13.2741 106.477 14.3299 106.477 15.7112V24.3363H103.331V8.90615H106.477V10.6701C107.006 10.0249 107.678 9.5164 108.437 9.18615C109.237 8.82956 110.102 8.6483 110.975 8.65416C112.189 8.65416 113.274 8.91549 114.231 9.43815C115.176 9.94874 115.946 10.7397 116.439 11.7061C116.899 10.7728 117.616 10.0355 118.591 9.49415C119.55 8.93863 120.634 8.64898 121.737 8.65416V8.65299Z" fill="#15CC97"></path>
</svg>